<svg viewBox="0 0 64 64" xmlns="http://www.w3.org/2000/svg"><g id="_01_Wireless_Connection" data-name="01 Wireless Connection"><path d="m44.908 39.58a1 1 0 0 0 -.908-.58h-6.656l.6-2.009a6.208 6.208 0 0 0 -5.944-7.991 6.217 6.217 0 0 0 -6 4.608l-2.966 11.134a1 1 0 0 0 .966 1.258h6.613l-4.562 13.684a1 1 0 0 0 1.711.963l17-20a1 1 0 0 0 .146-1.067z" fill="#9f3"/><path d="m57.456 13.544a36 36 0 0 0 -50.912 0 1 1 0 0 0 0 1.414l4.243 4.242a1.029 1.029 0 0 0 1.414 0 28 28 0 0 1 39.6 0 1 1 0 0 0 1.414 0l4.243-4.243a1 1 0 0 0 -.002-1.413z" fill="#9f3"/><g fill="#204000"><path d="m44 39h-6.656l.6-2.009a6.208 6.208 0 0 0 -5.944-7.991 6.217 6.217 0 0 0 -6 4.608l-2.966 11.134a1 1 0 0 0 .966 1.258h6.613l-4.562 13.684a1 1 0 0 0 1.711.963l17-20a1 1 0 0 0 -.762-1.647zm-14.419 16.42 3.368-10.1a1 1 0 0 0 -.949-1.32h-6.7l2.634-9.876a4.211 4.211 0 0 1 4.066-3.124 4.208 4.208 0 0 1 4.03 5.417l-.989 3.3a1 1 0 0 0 .959 1.283h5.837z"/><path d="m15.029 22.029a1 1 0 0 0 0 1.414l4.243 4.244a1 1 0 0 0 1.414 0 16 16 0 0 1 22.628 0 1 1 0 0 0 1.414 0l4.243-4.244a1 1 0 0 0 0-1.414 24.029 24.029 0 0 0 -33.942 0zm28.971 3.555a18 18 0 0 0 -24 0l-2.831-2.832a22.034 22.034 0 0 1 29.666 0z"/><path d="m57.456 13.544a36.04 36.04 0 0 0 -50.912 0 1 1 0 0 0 0 1.414l4.243 4.242a1 1 0 0 0 1.414 0 28.034 28.034 0 0 1 39.6 0 1 1 0 0 0 1.414 0l4.243-4.243a1 1 0 0 0 -.002-1.413zm-4.962 3.548a30.039 30.039 0 0 0 -40.988 0l-2.83-2.83a34.038 34.038 0 0 1 46.648 0z"/></g></g></svg>