<svg xmlns="http://www.w3.org/2000/svg" version="1.1" xmlns:xlink="http://www.w3.org/1999/xlink" width="512" height="512" x="0" y="0" viewBox="0 0 682.667 682.667" style="enable-background:new 0 0 512 512" xml:space="preserve" class=""><g><defs><clipPath id="a" clipPathUnits="userSpaceOnUse"><path d="M0 512h512V0H0Z" fill="#2f2f34" opacity="1" data-original="#000000" class=""></path></clipPath></defs><g clip-path="url(#a)" transform="matrix(1.33333 0 0 -1.33333 0 682.667)"><path d="M0 0a176.26 176.26 0 0 0-23.658 88.344h-69.467c-.01-42.1 10.786-84.515 32.959-122.92 9.548-16.614 30.756-22.342 47.371-12.795C3.819-37.823 9.548-16.614 0 0" style="fill-opacity:1;fill-rule:evenodd;stroke:none" transform="translate(103.123 129.77)" fill="#00c9af" data-original="#00c9af" class=""></path><path d="M0 0a176.26 176.26 0 0 0-23.658-88.344c-9.548-16.614-3.82-37.823 12.795-47.37 16.615-9.548 37.823-3.82 47.371 12.795C58.681-84.515 69.477-42.1 69.467 0Z" style="fill-opacity:1;fill-rule:evenodd;stroke:none" transform="translate(432.533 218.113)" fill="#fd4848" data-original="#fd4848"></path><path d="M0 0a175.683 175.683 0 0 0 22.183 65.154l-60.285 34.805C-54.348 71.754-64.691 40.792-68.879 8.984a246.27 246.27 0 0 1-2.106-32.068h69.466A177.35 177.35 0 0 0 0 0" style="fill-opacity:1;fill-rule:evenodd;stroke:none" transform="translate(80.983 241.197)" fill="#8ae7d3" data-original="#8ae7d3"></path><path d="m0 0 60.284-34.805A177.39 177.39 0 0 0 88.37 1.704c11.169 11.168 23.462 20.526 36.517 28.073L90.033 90.145C71.823 79.616 54.674 66.561 39.094 50.98A244.93 244.93 0 0 1 0 0" style="fill-opacity:1;fill-rule:evenodd;stroke:none" transform="translate(42.882 341.157)" fill="#ffd777" data-original="#ffd777" class=""></path><path d="m0 0 34.854-60.368c27.207 15.73 57.718 23.595 88.23 23.595v69.694C80.521 32.921 37.957 21.948 0 0" style="fill-opacity:1;fill-rule:evenodd;stroke:none" transform="translate(132.915 431.302)" fill="#ffba4a" data-original="#ffba4a" class=""></path><path d="M0 0v-69.695c14.666 0 29.332-1.817 43.631-5.451l4.065-1.085A175.292 175.292 0 0 0 88.23-93.29l34.854 60.369C85.127-10.974 42.563 0 0 0" style="fill-opacity:1;fill-rule:evenodd;stroke:none" transform="translate(255.999 464.223)" fill="#ffba4a" data-original="#ffba4a" class=""></path><path d="m0 0-34.854-60.368c13.055-7.547 25.349-16.905 36.517-28.073a177.39 177.39 0 0 0 28.086-36.509l60.284 34.805a244.896 244.896 0 0 1-39.094 50.98C35.359-23.584 18.21-10.529 0 0" style="fill-opacity:1;fill-rule:evenodd;stroke:none" transform="translate(379.083 431.302)" fill="#ff8244" data-original="#ff8244" class=""></path><path d="m0 0-60.284-34.805a175.705 175.705 0 0 0 22.182-65.154 177.35 177.35 0 0 0 1.519-23.084h69.467a246.107 246.107 0 0 1-2.107 32.068C26.589-59.167 16.247-28.206 0 0" style="fill-opacity:1;fill-rule:evenodd;stroke:none" transform="translate(469.116 341.157)" fill="#ff8244" data-original="#ff8244" class=""></path><path d="m0 0 48.568-7.936 147.261-24.061L56.252 20.801 10.237 38.207C.063 42.055-11.17 34.726-13.984 24.222-16.799 13.718-10.731 1.754 0 0m-13.984 24.222z" style="fill-opacity:1;fill-rule:evenodd;stroke:none" transform="translate(250.895 198.994)" fill="#808080" data-original="#808080" class=""></path><path d="m0 0-48.568 7.936C-59.3 9.689-65.367 21.654-62.553 32.158c2.815 10.504 14.048 17.833 24.222 13.984L7.684 28.736C7.271 41.259 2.288 53.66-7.271 63.218c-19.981 19.981-52.376 19.981-72.358 0-19.98-19.981-19.98-52.377 0-72.359 19.982-19.981 52.377-19.981 72.358 0A51.309 51.309 0 0 1 0 0m-62.553 32.158z" style="fill-opacity:1;fill-rule:evenodd;stroke:none" transform="translate(299.464 191.059)" fill="#e6e6e6" data-original="#e6e6e6"></path><path d="M315.999 109.779h-120v-32h120z" style="fill-opacity:1;fill-rule:evenodd;stroke:none" fill="#8ae7d3" data-original="#8ae7d3"></path><path d="M0 0c42.468 30.144 92.354 45.218 142.236 45.218 62.982 0 125.967-24.029 174.025-72.086 39.294-39.294 62.961-89.472 69.87-141.955 6.883-52.28-3.027-106.791-30.853-154.988-9.547-16.614-30.756-22.343-47.37-12.795-16.614 9.548-22.343 30.757-12.796 47.371 19.983 34.611 27.094 73.805 22.141 111.428-4.927 37.418-21.952 73.346-50.27 101.663-34.444 34.445-79.595 51.668-124.747 51.668-45.151 0-90.3-17.223-124.747-51.668-28.317-28.317-45.343-64.245-50.268-101.663-4.953-37.623 2.157-76.817 22.139-111.428 9.548-16.614 3.82-37.823-12.795-47.371-16.614-9.548-37.823-3.819-47.371 12.795-27.825 48.196-37.734 102.708-30.852 154.988 5.751 43.672 23.104 85.751 51.408 121.288m18.463 20.667.1.101" style="stroke-width:20;stroke-linecap:round;stroke-linejoin:round;stroke-miterlimit:22.926;stroke-dasharray:none;stroke-opacity:1" transform="translate(113.763 419.005)" fill="none" stroke="#2f2f34" stroke-width="20" stroke-linecap="round" stroke-linejoin="round" stroke-miterlimit="22.926" stroke-dasharray="none" stroke-opacity="" data-original="#000000" opacity="1" class=""></path><path d="M0 0a51.267 51.267 0 0 0-7.271-9.14c-19.981-19.981-52.376-19.981-72.358 0-19.98 19.981-19.98 52.377 0 72.358 19.982 19.982 52.377 19.982 72.358 0C2.288 53.66 7.271 41.26 7.684 28.737" style="stroke-width:20;stroke-linecap:round;stroke-linejoin:round;stroke-miterlimit:22.926;stroke-dasharray:none;stroke-opacity:1" transform="translate(299.465 191.059)" fill="none" stroke="#2f2f34" stroke-width="20" stroke-linecap="round" stroke-linejoin="round" stroke-miterlimit="22.926" stroke-dasharray="none" stroke-opacity="" data-original="#000000" opacity="1" class=""></path><path d="M0 0h-66.101" style="stroke-width:20;stroke-linecap:round;stroke-linejoin:round;stroke-miterlimit:22.926;stroke-dasharray:none;stroke-opacity:1" transform="translate(77.782 218.114)" fill="none" stroke="#2f2f34" stroke-width="20" stroke-linecap="round" stroke-linejoin="round" stroke-miterlimit="22.926" stroke-dasharray="none" stroke-opacity="" data-original="#000000" opacity="1" class=""></path><path d="m0 0-57.514 33.205" style="stroke-width:20;stroke-linecap:round;stroke-linejoin:round;stroke-miterlimit:22.926;stroke-dasharray:none;stroke-opacity:1" transform="translate(101.782 307.151)" fill="none" stroke="#2f2f34" stroke-width="20" stroke-linecap="round" stroke-linejoin="round" stroke-miterlimit="22.926" stroke-dasharray="none" stroke-opacity="" data-original="#000000" opacity="1" class=""></path><path d="m0 0-33.875 58.674" style="stroke-width:20;stroke-linecap:round;stroke-linejoin:round;stroke-miterlimit:22.926;stroke-dasharray:none;stroke-opacity:1" transform="translate(167.281 371.778)" fill="none" stroke="#2f2f34" stroke-width="20" stroke-linecap="round" stroke-linejoin="round" stroke-miterlimit="22.926" stroke-dasharray="none" stroke-opacity="" data-original="#000000" opacity="1" class=""></path><path d="M0 0v66.59" style="stroke-width:20;stroke-linecap:round;stroke-linejoin:round;stroke-miterlimit:22.926;stroke-dasharray:none;stroke-opacity:1" transform="translate(255.999 396.081)" fill="none" stroke="#2f2f34" stroke-width="20" stroke-linecap="round" stroke-linejoin="round" stroke-miterlimit="22.926" stroke-dasharray="none" stroke-opacity="" data-original="#000000" opacity="1" class=""></path><path d="m0 0 33.313 57.699" style="stroke-width:20;stroke-linecap:round;stroke-linejoin:round;stroke-miterlimit:22.926;stroke-dasharray:none;stroke-opacity:1" transform="translate(344.999 372.266)" fill="none" stroke="#2f2f34" stroke-width="20" stroke-linecap="round" stroke-linejoin="round" stroke-miterlimit="22.926" stroke-dasharray="none" stroke-opacity="" data-original="#000000" opacity="1" class=""></path><path d="m0 0 58.192 33.598" style="stroke-width:20;stroke-linecap:round;stroke-linejoin:round;stroke-miterlimit:22.926;stroke-dasharray:none;stroke-opacity:1" transform="translate(409.877 306.955)" fill="none" stroke="#2f2f34" stroke-width="20" stroke-linecap="round" stroke-linejoin="round" stroke-miterlimit="22.926" stroke-dasharray="none" stroke-opacity="" data-original="#000000" opacity="1" class=""></path><path d="M0 0h67.278" style="stroke-width:20;stroke-linecap:round;stroke-linejoin:round;stroke-miterlimit:22.926;stroke-dasharray:none;stroke-opacity:1" transform="translate(433.628 218.114)" fill="none" stroke="#2f2f34" stroke-width="20" stroke-linecap="round" stroke-linejoin="round" stroke-miterlimit="22.926" stroke-dasharray="none" stroke-opacity="" data-original="#000000" opacity="1" class=""></path><path d="M196 77.78h119.999v32H196Z" style="stroke-width:20;stroke-linecap:round;stroke-linejoin:round;stroke-miterlimit:22.926;stroke-dasharray:none;stroke-opacity:1" fill="none" stroke="#2f2f34" stroke-width="20" stroke-linecap="round" stroke-linejoin="round" stroke-miterlimit="22.926" stroke-dasharray="none" stroke-opacity="" data-original="#000000" opacity="1" class=""></path><path d="m0 0-195.829 31.998c-10.732 1.753-16.799 13.718-13.985 24.221l.001.001c2.813 10.503 14.047 17.832 24.221 13.984z" style="stroke-width:20;stroke-linecap:round;stroke-linejoin:round;stroke-miterlimit:22.926;stroke-dasharray:none;stroke-opacity:1" transform="translate(446.726 166.997)" fill="none" stroke="#2f2f34" stroke-width="20" stroke-linecap="round" stroke-linejoin="round" stroke-miterlimit="22.926" stroke-dasharray="none" stroke-opacity="" data-original="#000000" opacity="1" class=""></path><path d="M0 0h.236" style="stroke-width:20;stroke-linecap:round;stroke-linejoin:round;stroke-miterlimit:2.613;stroke-dasharray:none;stroke-opacity:1" transform="translate(108.195 218.116)" fill="none" stroke="#2f2f34" stroke-width="20" stroke-linecap="round" stroke-linejoin="round" stroke-miterlimit="2.613" stroke-dasharray="none" stroke-opacity="" data-original="#000000" opacity="1" class=""></path><path d="m0 0 .118-.205" style="stroke-width:20;stroke-linecap:round;stroke-linejoin:round;stroke-miterlimit:2.613;stroke-dasharray:none;stroke-opacity:1" transform="translate(182.112 346.109)" fill="none" stroke="#2f2f34" stroke-width="20" stroke-linecap="round" stroke-linejoin="round" stroke-miterlimit="2.613" stroke-dasharray="none" stroke-opacity="" data-original="#000000" opacity="1" class=""></path><path d="m0 0-.118-.205" style="stroke-width:20;stroke-linecap:round;stroke-linejoin:round;stroke-miterlimit:2.613;stroke-dasharray:none;stroke-opacity:1" transform="translate(329.916 346.091)" fill="none" stroke="#2f2f34" stroke-width="20" stroke-linecap="round" stroke-linejoin="round" stroke-miterlimit="2.613" stroke-dasharray="none" stroke-opacity="" data-original="#000000" opacity="1" class=""></path><path d="M0 0h-.235" style="stroke-width:20;stroke-linecap:round;stroke-linejoin:round;stroke-miterlimit:2.613;stroke-dasharray:none;stroke-opacity:1" transform="translate(403.802 218.081)" fill="none" stroke="#2f2f34" stroke-width="20" stroke-linecap="round" stroke-linejoin="round" stroke-miterlimit="2.613" stroke-dasharray="none" stroke-opacity="" data-original="#000000" opacity="1" class=""></path><path d="M0 0h-.235m70.001-.002H28.731" style="stroke-width:20;stroke-linecap:round;stroke-linejoin:round;stroke-miterlimit:2.613;stroke-dasharray:none;stroke-opacity:1" transform="translate(221.234 47.78)" fill="none" stroke="#2f2f34" stroke-width="20" stroke-linecap="round" stroke-linejoin="round" stroke-miterlimit="2.613" stroke-dasharray="none" stroke-opacity="" data-original="#000000" opacity="1" class=""></path></g></g></svg>