<svg id="Capa_1" enable-background="new 0 0 512.002 512.002" height="512" viewBox="0 0 512.002 512.002" width="512" xmlns="http://www.w3.org/2000/svg"><g><path clip-rule="evenodd" d="m142.001 256.002c0 88.366 71.635 160 160 160s160-71.635 160-160c0-88.366-71.635-160-160-160s-160 71.634-160 160zm160-20.001c11.046 0 20 8.954 20 20 0 7.402-4.021 13.865-9.998 17.323-2.942 1.703-6.358 2.677-10.002 2.677-11.046 0-20-8.954-20-20 0-11.045 8.955-20 20-20z" fill="#e2c4ff" fill-rule="evenodd"/><g fill="#020288"><path d="m302.001 46.001c-45.971 0-88.54 14.848-123.162 40.001h-83.839c-5.523 0-10 4.478-10 10s4.477 10 10 10h60.171c-10.331 10.115-19.624 21.284-27.705 33.333h-82.466c-5.523 0-10 4.478-10 10s4.477 10 10 10h70.601c-5.527 10.615-10.174 21.759-13.843 33.334h-41.758c-5.523 0-10 4.478-10 10s4.477 10 10 10h36.496c-2.281 10.83-3.725 21.965-4.26 33.333h-82.236c-5.523 0-10 4.478-10 10s4.477 10 10 10h82.237c.536 11.368 1.979 22.503 4.26 33.333h-76.497c-5.523 0-10 4.478-10 10s4.477 10 10 10h81.759c10.525 33.202 29.096 62.858 53.414 86.666h-60.173c-5.523 0-10 4.478-10 10s4.477 10 10 10h83.84c34.622 25.152 77.19 40 123.161 40 115.795 0 210-94.205 210-210s-94.205-210-210-210zm0 400c-104.766 0-190-85.233-190-190s85.234-190 190-190c104.767 0 190 85.233 190 190s-85.233 190-190 190z"/><path d="m302.001 141.002c5.523 0 10-4.478 10-10v-5c0-5.522-4.477-10-10-10s-10 4.478-10 10v5c0 5.522 4.478 10 10 10z"/><path d="m245.662 138.418c-2.762-4.783-8.877-6.422-13.66-3.66s-6.422 8.877-3.66 13.66l2.5 4.33c1.852 3.208 5.213 5.002 8.669 5.002 1.696 0 3.416-.433 4.991-1.342 4.783-2.762 6.422-8.877 3.66-13.66z"/><path d="m198.749 184.842-4.33-2.5c-4.784-2.761-10.899-1.123-13.661 3.66-2.762 4.782-1.123 10.898 3.66 13.66l4.33 2.5c1.575.909 3.294 1.342 4.991 1.342 3.456 0 6.817-1.794 8.669-5.002 2.762-4.782 1.123-10.898-3.659-13.66z"/><path d="m187.001 256.002c0-5.522-4.477-10-10-10h-5c-5.523 0-10 4.478-10 10s4.477 10 10 10h5c5.523 0 10-4.478 10-10z"/><path d="m188.748 309.841-4.33 2.5c-4.783 2.762-6.421 8.878-3.66 13.66 1.853 3.208 5.213 5.002 8.669 5.002 1.697 0 3.417-.433 4.991-1.342l4.33-2.5c4.783-2.762 6.421-8.878 3.66-13.66-2.762-4.783-8.878-6.42-13.66-3.66z"/><path d="m244.501 355.595c-4.781-2.76-10.898-1.123-13.66 3.66l-2.5 4.33c-2.762 4.783-1.123 10.898 3.66 13.66 1.575.909 3.294 1.342 4.991 1.342 3.456 0 6.817-1.794 8.669-5.002l2.5-4.33c2.762-4.783 1.124-10.899-3.66-13.66z"/><path d="m302.001 371.001c-5.523 0-10 4.478-10 10v5c0 5.522 4.477 10 10 10s10-4.478 10-10v-5c0-5.522-4.477-10-10-10z"/><path d="m373.162 359.256c-2.761-4.784-8.876-6.422-13.66-3.662-4.783 2.762-6.422 8.877-3.661 13.66l2.5 4.33c1.852 3.209 5.213 5.003 8.67 5.003 1.696 0 3.416-.433 4.99-1.341 4.783-2.762 6.422-8.877 3.661-13.66z"/><path d="m419.584 312.341-4.33-2.5c-4.783-2.762-10.899-1.123-13.66 3.66-2.762 4.783-1.123 10.898 3.66 13.66l4.33 2.5c1.575.909 3.294 1.342 4.991 1.342 3.456 0 6.817-1.794 8.669-5.002 2.762-4.783 1.124-10.898-3.66-13.66z"/><path d="m432.001 246.002h-5c-5.523 0-10 4.478-10 10s4.477 10 10 10h5c5.523 0 10-4.478 10-10s-4.477-10-10-10z"/><path d="m410.264 203.504c1.696 0 3.416-.433 4.991-1.342l4.33-2.5c4.783-2.762 6.422-8.877 3.66-13.66-2.761-4.783-8.878-6.423-13.66-3.66l-4.33 2.5c-4.783 2.762-6.422 8.877-3.66 13.66 1.851 3.208 5.213 5.002 8.669 5.002z"/><path d="m372 134.757c-4.783-2.759-10.899-1.122-13.66 3.662l-2.5 4.33c-2.761 4.783-1.122 10.898 3.661 13.66 1.575.908 3.294 1.341 4.99 1.341 3.456 0 6.818-1.794 8.67-5.003l2.5-4.33c2.762-4.783 1.123-10.898-3.661-13.66z"/><path d="m324.797 275.484c4.49-5.246 7.205-12.053 7.205-19.483 0-13.037-8.36-24.159-20-28.286v-56.713c0-5.522-4.477-10-10-10s-10 4.478-10 10v56.713c-11.64 4.127-20 15.249-20 28.286 0 16.542 13.458 30 30 30 1.872 0 3.705-.173 5.483-.503l18.356 31.795c1.852 3.208 5.213 5.002 8.669 5.002 1.696 0 3.416-.433 4.991-1.342 4.783-2.761 6.422-8.877 3.66-13.66zm-32.796-19.483c0-5.501 4.465-9.979 9.962-10h.038s.025 0 .038 0c5.497.021 9.962 4.499 9.962 10 0 5.514-4.486 10-10 10s-10-4.486-10-10z"/><path d="m68.501 352.668h-23.501c-5.523 0-10 4.478-10 10s4.477 10 10 10h23.501c5.523 0 10-4.478 10-10s-4.477-10-10-10z"/></g></g></svg>