<svg id="Layer_1" enable-background="new 0 0 64 64" viewBox="0 0 64 64" xmlns="http://www.w3.org/2000/svg"><g><g><path d="m53.293 59.242h-19.414v-4.392l2.484-1.723.434.535c.828 1.02 2.029 1.586 3.308 1.586.23 0 .462-.018.695-.056 1.53-.244 2.774-1.254 3.327-2.702l2.507-6.557c.059-.156.019-.403-.087-.533-.105-.13-.338-.22-.504-.192l-7.525 1.202c-1.406.225-2.549 1.153-3.057 2.483-.448 1.174-.319 2.442.334 3.484l-1.916 1.329v-10.19c1.562-.181 2.801-1.596 2.99-3.401h.3c.6 0 1.088-.529 1.088-1.18v-2.342h.28c.724 0 1.313-.589 1.313-1.313v-2.058c0-2.758.757-5.344 2.192-7.482.344-.523.772-1.059 1.272-1.589 2.446-2.555 3.794-5.911 3.794-9.449 0-3.894-1.664-7.616-4.565-10.214-2.939-2.629-6.734-3.838-10.693-3.4-6.356.71-11.432 5.847-12.069 12.214-.389 3.896.829 7.632 3.431 10.519.548.609 1.032 1.238 1.442 1.871 1.519 2.314 2.322 4.914 2.322 7.521v2.068c0 .724.589 1.313 1.313 1.313h.272v2.342c0 .65.488 1.18 1.088 1.18h.3c.189 1.805 1.428 3.22 2.99 3.401v10.129l-2.898-2.267.204-.251c.898-1.105 1.13-2.559.622-3.889s-1.651-2.258-3.057-2.483l-7.525-1.202c-.193-.032-.383.043-.504.192-.106.13-.147.377-.086.535l2.506 6.555c.553 1.447 1.797 2.457 3.327 2.702.233.038.466.056.695.056 1.236 0 2.391-.539 3.215-1.494l3.501 2.74v4.404h-19.414c-.26 0-.47.21-.47.47s.21.47.47.47h39.767c.26 0 .47-.21.47-.47 0-.261-.21-.472-.469-.472z" fill="#fec6f0"/><g><path d="m26.658 30.011c-.108.259-.011.551.231.694.09.053.188.079.285.079.164 0 .325-.074.434-.212l8.448-10.653c.169-.214.201-.5.082-.745s-.362-.398-.635-.398h-3.888l2.635-8.68c.079-.261-.041-.539-.286-.66-.244-.121-.538-.049-.698.172l-8.159 11.26c-.156.215-.178.497-.057.734s.362.385.628.385h4.336zm-.52-8.964 6.552-9.041-2.065 6.8c-.064.213-.024.446.108.625.133.178.344.285.566.285h3.719l-6.424 8.102 2.423-5.793c.091-.218.067-.466-.064-.662-.131-.197-.351-.314-.587-.314h-4.228z"/><path d="m50.475 62.061h-19.414v-4.392l2.484-1.723.434.535c.828 1.02 2.029 1.586 3.308 1.586.23 0 .462-.018.695-.056 1.53-.244 2.774-1.254 3.327-2.702l2.507-6.557c.059-.156.019-.403-.087-.533-.105-.13-.338-.22-.504-.192l-7.525 1.202c-1.406.225-2.549 1.153-3.057 2.483-.448 1.173-.319 2.442.334 3.484l-1.916 1.329v-10.19c1.562-.181 2.801-1.596 2.99-3.401h.3c.6 0 1.088-.529 1.088-1.18v-2.342h.28c.724 0 1.313-.589 1.313-1.313v-2.058c0-2.758.757-5.344 2.192-7.482.344-.523.772-1.059 1.272-1.589 2.446-2.555 3.794-5.911 3.794-9.449 0-3.894-1.664-7.616-4.565-10.214-2.938-2.631-6.733-3.841-10.692-3.402-6.357.711-11.433 5.848-12.07 12.215-.389 3.896.829 7.632 3.431 10.519.548.609 1.032 1.238 1.442 1.871 1.519 2.314 2.322 4.914 2.322 7.521v2.068c0 .724.589 1.313 1.313 1.313h.272v2.342c0 .65.488 1.18 1.088 1.18h.3c.189 1.805 1.428 3.22 2.99 3.401v10.129l-2.898-2.267.204-.251c.898-1.105 1.13-2.559.622-3.889s-1.651-2.258-3.057-2.483l-7.525-1.202c-.193-.032-.383.043-.504.192-.106.13-.147.377-.086.535l2.506 6.555c.553 1.447 1.797 2.457 3.327 2.702.233.038.466.056.695.056 1.236 0 2.391-.539 3.215-1.494l3.501 2.74v4.404h-19.414c-.26 0-.47.21-.47.47s.21.47.47.47h39.767c.26 0 .47-.21.47-.47 0-.261-.21-.471-.469-.471zm-16.954-10.013c.387-1.013 1.257-1.72 2.328-1.891l6.843-1.093-2.26 5.91c-.432 1.13-1.403 1.919-2.597 2.11s-2.363-.256-3.126-1.195l-.389-.479 5.248-3.641c.213-.148.266-.44.118-.654-.148-.212-.441-.267-.654-.118l-5.261 3.65c-.474-.786-.586-1.723-.25-2.599zm-10.663 3.38c-1.194-.191-2.166-.98-2.598-2.11l-2.259-5.91 6.842 1.093c1.071.171 1.941.878 2.328 1.891s.21 2.12-.473 2.961l-.214.264-3.654-2.858c-.205-.161-.501-.123-.659.08-.16.204-.124.5.08.659l3.633 2.843c-.763.862-1.879 1.27-3.026 1.087zm2.239-17.329v-2.068c0-2.791-.856-5.57-2.475-8.034-.435-.672-.949-1.341-1.531-1.987-2.423-2.688-3.557-6.167-3.194-9.796.593-5.93 5.319-10.713 11.238-11.374.495-.055.988-.082 1.476-.082 3.147 0 6.116 1.128 8.486 3.25 2.702 2.42 4.252 5.887 4.252 9.514 0 3.295-1.255 6.42-3.535 8.802-.54.572-1.003 1.151-1.373 1.716-1.537 2.29-2.348 5.056-2.348 8.001v2.058c0 .206-.167.373-.373.373h-.749-8.757-.742c-.207.001-.375-.167-.375-.373zm1.585 3.655v-2.342h7.818v2.342c0 .142-.078.24-.149.24h-.729-6.062-.729c-.07.001-.149-.098-.149-.24zm1.378 1.18h5.061c-.184 1.415-1.186 2.5-2.391 2.5h-.279c-1.204 0-2.207-1.085-2.391-2.5z"/></g></g></g></svg>