<svg viewBox="0 0 24 24" xmlns="http://www.w3.org/2000/svg" xmlns:xlink="http://www.w3.org/1999/xlink"><linearGradient id="a" gradientUnits="userSpaceOnUse" x1="-1.1" x2="25.1" y1="5.892" y2="18.108"><stop offset="0" stop-color="#fff" stop-opacity=".2"/><stop offset="1" stop-color="#fff" stop-opacity="0"/></linearGradient><rect height="22" rx=".5" width="22" x="1" y="1"/><path d="m2 2h20v20h-20z" fill="#f44336"/><path d="m18.5 19h-3a.49971.49971 0 0 1 -.5-.5v-9.5h-2v9.5a.49971.49971 0 0 1 -.5.5h-7a.49971.49971 0 0 1 -.5-.5v-13a.49971.49971 0 0 1 .5-.5h13a.49971.49971 0 0 1 .5.5v13a.49971.49971 0 0 1 -.5.5z"/><path d="m16 18h2v-12h-12v12h6v-9.5a.49971.49971 0 0 1 .5-.5h3a.49971.49971 0 0 1 .5.5z" fill="#fff"/><rect fill="url(#a)" height="22" rx=".5" width="22" x="1" y="1"/></svg>