<svg xmlns="http://www.w3.org/2000/svg" version="1.1" xmlns:xlink="http://www.w3.org/1999/xlink" width="512" height="512" x="0" y="0" viewBox="0 0 24 24" style="enable-background:new 0 0 512 512" xml:space="preserve" class=""><g><path fill="#ef5350" d="m8.35 18.26-1.43 1.43a1.75 1.75 0 0 1-2.61-.15 9.77 9.77 0 0 1-2.06-6h5.5A4.29 4.29 0 0 0 8.52 16a1.76 1.76 0 0 1-.17 2.26z" opacity="1" data-original="#ef5350"></path><path fill="#ffc107" d="M12 3.8v5.5a4.26 4.26 0 0 0-3 1.24L5.11 6.66A9.62 9.62 0 0 1 12 3.8z" opacity="1" data-original="#ffc107"></path><path fill="#e53935" d="M9 10.54a4.26 4.26 0 0 0-1.24 3H2.25a9.66 9.66 0 0 1 2.86-6.88z" opacity="1" data-original="#e53935"></path><path fill="#ff9800" d="M18.89 6.66 15 10.54a4.26 4.26 0 0 0-3-1.24V3.8a9.62 9.62 0 0 1 6.89 2.86z" opacity="1" data-original="#ff9800"></path><path fill="#66bb6a" d="M21.75 13.55h-5.5a4.26 4.26 0 0 0-1.24-3l3.88-3.88a9.66 9.66 0 0 1 2.86 6.88z" opacity="1" data-original="#66bb6a"></path><path fill="#43a047" d="M21.75 13.55a9.77 9.77 0 0 1-2.06 6 1.72 1.72 0 0 1-1.26.66h-.11a1.76 1.76 0 0 1-1.24-.51l-1.43-1.43a1.76 1.76 0 0 1-.17-2.27 4.29 4.29 0 0 0 .77-2.45z" opacity="1" data-original="#43a047"></path><g fill="#424242"><path d="M12 16.3a1.75 1.75 0 1 1 1.75-1.75A1.76 1.76 0 0 1 12 16.3zm0-2a.25.25 0 0 0-.25.25c0 .27.5.27.5 0a.25.25 0 0 0-.25-.25z" fill="#ffffff" opacity="1" data-original="#424242" class=""></path><path d="M12 15.3a.74.74 0 0 1-.62-.34.75.75 0 0 1 .2-1l3-2a.75.75 0 0 1 .84 1.25l-3 2a.74.74 0 0 1-.42.09z" fill="#ffffff" opacity="1" data-original="#424242" class=""></path></g></g></svg>