<svg enable-background="new 0 0 512 512" viewBox="0 0 512 512" xmlns="http://www.w3.org/2000/svg"><g id="_x32_1_Shield"><g><path d="m409.005 404.859c42.282-40.874 69.806-95.485 76.942-155.097l10.922-91.214c1.845-15.388-8.544-29.369-23.689-32.621-78.252-16.893-144.417-57.039-204.757-108.301-6.893-5.922-17.233-5.728-23.932.388-52.33 47.961-121.602 83.35-207.573 106.456-14.223 3.835-23.544 17.524-21.796 32.184l11.117 93.107c9.709 80.922 56.942 152.573 127.573 193.35l91.214 52.67c6.845 3.932 15.291 3.932 22.184 0l91.214-52.67c7.573-4.369 14.854-9.078 21.845-14.175z" fill="#cfb3fc"/><path d="m179.747 395.446c-56.171-32.422-94.302-90.233-101.999-154.636l-8.886-74.304c74.312-22.022 137.468-53.555 188.341-94.013 61.161 48.033 122.363 79.848 185.927 96.658l-8.564 71.659c-7.697 64.403-45.829 122.214-101.999 154.636l-76.411 44.108z" fill="#fff"/><circle cx="255.948" cy="258.82" fill="#ffa185" r="77.331"/><g fill="#451f78"><path d="m474.716 118.811c-69.459-14.994-133.514-48.909-201.546-106.706-9.697-8.334-24.134-8.102-33.599.545-51.036 46.77-119.852 82.026-204.55 104.791-17.626 4.755-29.287 21.982-27.128 40.077l11.117 93.11c9.934 82.799 58.966 157.113 131.16 198.787l91.228 52.682c4.525 2.598 9.602 3.897 14.691 3.897s10.195-1.304 14.76-3.906l91.209-52.668c7.846-4.523 15.414-9.434 22.499-14.601 3.25-2.37 3.963-6.921 1.593-10.173-2.368-3.243-6.921-3.968-10.173-1.593-6.665 4.859-13.795 9.486-21.195 13.752l-91.182 52.654c-4.629 2.636-10.358 2.645-14.935.019l-91.214-52.673c-68.243-39.399-114.592-109.645-123.983-187.908l-11.117-93.105c-1.308-10.965 5.769-21.409 16.455-24.291 86.971-23.371 157.829-59.75 210.596-108.109 4.022-3.674 10.161-3.783 14.305-.213 69.966 59.438 136.041 94.347 207.944 109.868 11.638 2.498 19.372 13.089 17.988 24.632l-10.922 91.214c-6.848 57.21-33.402 110.74-74.773 150.732-2.892 2.792-2.97 7.405-.175 10.297 2.797 2.882 7.41 2.972 10.297.171 43.772-42.31 71.867-98.946 79.111-159.464l10.922-91.214c2.284-19.063-10.352-36.518-29.383-40.604z"/><path d="m450.358 170.014c.431-3.603-1.858-6.973-5.369-7.903-62.784-16.606-122.739-47.79-183.29-95.343-2.655-2.086-6.393-2.076-9.028.028-50.073 39.816-112.61 71.019-185.879 92.726-3.401 1.01-5.582 4.323-5.16 7.846l8.886 74.304c7.967 66.672 47.439 126.512 105.587 160.08l76.409 44.107c1.126.649 2.385.977 3.641.977s2.515-.327 3.641-.977l76.409-44.107c58.151-33.568 97.623-93.409 105.59-160.08zm-23.022 69.933c-7.426 62.135-44.216 117.908-98.412 149.196l-72.768 42.002-72.768-42.002c-54.194-31.288-90.984-87.061-98.41-149.196l-8.159-68.231c70.379-21.503 131.013-51.744 180.401-89.976 58.655 45.311 116.984 75.731 177.933 92.788z"/><path d="m171.337 258.819c0 46.657 37.958 84.615 84.613 84.615s84.612-37.958 84.612-84.615c0-46.652-37.958-84.61-84.612-84.61s-84.613 37.958-84.613 84.61zm154.661 0c0 38.626-31.423 70.052-70.049 70.052s-70.049-31.425-70.049-70.052 31.423-70.047 70.049-70.047 70.049 31.421 70.049 70.047z"/><path d="m225.844 258.042c-3.143-2.498-7.725-1.986-10.233 1.152-2.508 3.143-1.993 7.727 1.15 10.235l23.352 18.631c1.337 1.062 2.942 1.588 4.539 1.588 1.901 0 3.795-.744 5.215-2.195l45.939-47.088c2.809-2.882 2.752-7.49-.128-10.297-2.878-2.811-7.485-2.754-10.297.123l-41.336 42.371z"/></g></g></g><g id="Layer_1"/></svg>