<svg xmlns="http://www.w3.org/2000/svg" xmlns:xlink="http://www.w3.org/1999/xlink" version="1.1" id="Capa_1" x="0px" y="0px" viewBox="0 0 511 511" style="enable-background:new 0 0 511 511;" xml:space="preserve" width="300" height="300" xmlns:svgjs="http://svgjs.dev/svgjs"><g width="100%" height="100%" transform="matrix(1,0,0,1,0,0)"><g>
	<path style="fill-rule: evenodd; clip-rule: evenodd;" d="M304.377,453.507c84.631,0,153.221-68.619,153.221-153.25&#10;&#9;&#9;s-68.591-153.222-153.221-153.222s-153.25,68.591-153.25,153.222S219.746,453.507,304.377,453.507L304.377,453.507z" fill="#e2c4ff" fill-opacity="1" data-original-color="#e2c4ffff" stroke="none" stroke-opacity="1"/>
	<path style="fill-rule: evenodd; clip-rule: evenodd;" d="M460.352,180.508l32.393-32.393&#10;&#9;&#9;c9.937-9.937,9.937-26.261,0-36.226c-9.965-9.937-26.289-9.937-36.226,0l-32.393,32.393c6.7,5.167,13.145,10.817,19.277,16.949&#10;&#9;&#9;C449.536,167.363,455.185,173.808,460.352,180.508L460.352,180.508z" fill="#e2c4ff" fill-opacity="1" data-original-color="#e2c4ffff" stroke="none" stroke-opacity="1"/>
	<path style="stroke-linecap: round; stroke-linejoin: round; stroke-miterlimit: 10;" d="&#10;&#9;&#9;M443.404,439.312c-66.916,66.915-170.114,75.489-246.341,25.75H64.31c-12.946,0-23.535-10.59-23.535-23.535&#10;&#9;&#9;c0-12.946,10.59-23.535,23.535-23.535h35.204c12.946,0,23.535-10.618,23.535-23.564c0-12.946-10.59-23.535-23.535-23.535H45.317&#10;&#9;&#9;c-12.946,0-23.535-10.59-23.535-23.535c0-12.946,10.59-23.535,23.535-23.535h25.182c12.946,0,23.535-10.618,23.535-23.564&#10;&#9;&#9;s-10.59-23.535-23.535-23.535H33.535C20.59,276.722,10,266.133,10,253.187c0-12.946,10.59-23.535,23.535-23.535h57.007&#10;&#9;&#9;c12.946,0,23.535-10.618,23.535-23.564s-10.59-23.535-23.535-23.535H65.361c-12.946,0-23.535-10.589-23.535-23.535&#10;&#9;&#9;c0-12.946,10.59-23.535,23.535-23.535h131.702c76.227-49.768,179.397-41.166,246.341,25.75&#10;&#9;&#9;C520.199,238.026,520.199,362.517,443.404,439.312L443.404,439.312z" fill="none" fill-opacity="1" stroke="#402173" stroke-opacity="1" data-original-stroke-color="#020288ff" stroke-width="20" data-original-stroke-width="20"/>
	<path style="stroke-linecap: round; stroke-linejoin: round; stroke-miterlimit: 10;" d="&#10;&#9;&#9;M342.477,57.267v50.109 M266.278,107.347v-50.08" fill="none" fill-opacity="1" stroke="#402173" stroke-opacity="1" data-original-stroke-color="#020288ff" stroke-width="20" data-original-stroke-width="20"/>
	<path style="stroke-linecap: round; stroke-linejoin: round; stroke-miterlimit: 10;" d="&#10;&#9;&#9;M304.377,395.365v16.069 M304.377,205.179V189.11" fill="none" fill-opacity="1" stroke="#402173" stroke-opacity="1" data-original-stroke-color="#020288ff" stroke-width="20" data-original-stroke-width="20"/>
	<path style="stroke-linecap: round; stroke-linejoin: round; stroke-miterlimit: 10;" d="&#10;&#9;&#9;M399.484,300.258h16.04 M209.27,300.258h-16.069" fill="none" fill-opacity="1" stroke="#402173" stroke-opacity="1" data-original-stroke-color="#020288ff" stroke-width="20" data-original-stroke-width="20"/>
	<path style="stroke-linecap: round; stroke-linejoin: round; stroke-miterlimit: 10;" d="&#10;&#9;&#9;M371.605,367.514l11.384,11.356 M237.121,233.03l-11.356-11.384" fill="none" fill-opacity="1" stroke="#402173" stroke-opacity="1" data-original-stroke-color="#020288ff" stroke-width="20" data-original-stroke-width="20"/>
	
		<line style="stroke-linecap: round; stroke-linejoin: round; stroke-miterlimit: 10;" x1="237.121" y1="367.514" x2="225.765" y2="378.87" fill="none" fill-opacity="1" stroke="#402173" stroke-opacity="1" data-original-stroke-color="#020288ff" stroke-width="20" data-original-stroke-width="20"/>
	
		<polyline style="stroke-linecap: round; stroke-linejoin: round; stroke-miterlimit: 10;" points="&#10;&#9;&#9;318.544,343.836 304.377,300.258 382.989,221.645 &#9;" fill="none" fill-opacity="1" stroke="#402173" stroke-opacity="1" data-original-stroke-color="#020288ff" stroke-width="20" data-original-stroke-width="20"/>
	<polygon style="fill-rule: evenodd; clip-rule: evenodd;" points="266.278,57.267 342.477,57.267 378.504,57.267 &#10;&#9;&#9;378.504,4.12 230.251,4.12 230.251,57.267 &#9;" fill="#e2c4ff" fill-opacity="1" data-original-color="#e2c4ffff" stroke="none" stroke-opacity="1"/>
</g></g></svg>