<svg clip-rule="evenodd" fill-rule="evenodd" stroke-linejoin="round" stroke-miterlimit="2" viewBox="0 0 96 96" xmlns="http://www.w3.org/2000/svg"><g><path d="m93.987 19.725c0-2.655-1.055-5.201-2.932-7.078s-4.424-2.932-7.078-2.932h-71.954c-2.654 0-5.201 1.055-7.078 2.932s-2.932 4.423-2.932 7.078v61.233h91.974z" fill="#eef2ff"/><path d="m2.013 28.984h91.974v-9.259c0-2.655-1.055-5.201-2.932-7.078s-4.424-2.932-7.078-2.932h-71.954c-2.654 0-5.201 1.055-7.078 2.932s-2.932 4.423-2.932 7.078v9.259z" fill="#9f66fe"/><circle cx="66.504" cy="19.349" fill="#eef2ff" r="3.245"/><circle cx="79.841" cy="19.349" fill="#eef2ff" r="3.245"/><g fill="#9f66fe"><path d="m17.382 42.46-6.6 4.477c-.411.279-.658.744-.658 1.241 0 .498.247.963.658 1.242l6.6 4.477c.685.465 1.619.286 2.083-.399.465-.685.286-1.619-.399-2.084l-4.77-3.236s4.77-3.236 4.77-3.236c.685-.464.864-1.398.399-2.083-.464-.685-1.398-.864-2.083-.399z"/><path d="m33.899 59.105 4.771 3.236s-4.771 3.236-4.771 3.236c-.685.465-.864 1.399-.399 2.084s1.399.864 2.084.399l6.6-4.477c.411-.28.657-.745.657-1.242s-.246-.962-.657-1.241l-6.6-4.477c-.685-.465-1.619-.286-2.084.399s-.286 1.618.399 2.083z"/><path d="m15.985 67.879 23.117-23.117c.586-.586.586-1.536 0-2.122-.585-.585-1.536-.585-2.121 0l-23.118 23.118c-.585.585-.585 1.536 0 2.121.586.586 1.536.586 2.122 0z"/></g><path d="m50.401 36.569h35.869v49.716h-35.869z" fill="#7f52cb"/><path d="m70.105 47.397h8.387c.828 0 1.5-.672 1.5-1.5s-.672-1.5-1.5-1.5h-8.387c-.828 0-1.5.672-1.5 1.5s.672 1.5 1.5 1.5z" fill="#9f66fe"/><path d="m70.76 63.033h-8.387c-.828 0-1.5.672-1.5 1.5s.672 1.5 1.5 1.5h8.387c.828 0 1.5-.672 1.5-1.5s-.672-1.5-1.5-1.5z" fill="#acce37"/><path d="m64.877 53.609h8.387c.828 0 1.5-.672 1.5-1.5s-.672-1.5-1.5-1.5h-8.387c-.828 0-1.5.672-1.5 1.5s.672 1.5 1.5 1.5z" fill="#acce37"/><path d="m75.988 69.245h-8.387c-.828 0-1.5.672-1.5 1.5 0 .827.672 1.5 1.5 1.5h8.387c.828 0 1.5-.673 1.5-1.5 0-.828-.672-1.5-1.5-1.5z" fill="#9f66fe"/><path d="m58.179 59.821h8.387c.828 0 1.5-.672 1.5-1.5s-.672-1.5-1.5-1.5h-8.387c-.827 0-1.5.672-1.5 1.5s.673 1.5 1.5 1.5z" fill="#d856fe"/><path d="m69.07 75.456h-8.387c-.827 0-1.5.673-1.5 1.5 0 .828.673 1.5 1.5 1.5h8.387c.828 0 1.5-.672 1.5-1.5 0-.827-.672-1.5-1.5-1.5z" fill="#d856fe"/></g></svg>