<svg xmlns="http://www.w3.org/2000/svg" version="1.1" xmlns:xlink="http://www.w3.org/1999/xlink" width="512" height="512" x="0" y="0" viewBox="0 0 64 64" style="enable-background:new 0 0 512 512" xml:space="preserve" class=""><g><path fill="#00ffa3" d="m27.509 51.486-1.885.974C25.29 51.895 25 51.195 25 50.5c0-4.136 3.141-7.5 7-7.5s7 3.364 7 7.5c0 2.542-3.781 5.417-6.499 6.978l-4.992-5.991zM45.462 18A33.184 33.184 0 0 0 45 14h7c1.103 0 2 .897 2 2v2zM10 18v-2c0-1.103.897-2 2-2h7a33.387 33.387 0 0 0-.462 4zM28.519 32C26.334 29.409 25 24.909 25 20c0-8.25 3.689-14 7-14s7 5.75 7 14c0 4.909-1.334 9.409-3.519 12h-6.963z" opacity="1" data-original="#00ffa3" class=""></path><g fill="#003b49"><path d="M52 11h-8a1 1 0 1 0 0 2h8c1.654 0 3 1.346 3 3v3H45a1 1 0 1 0 0 2h10v35c0 1.654-1.346 3-3 3H39a1 1 0 1 0 0 2h13c2.757 0 5-2.243 5-5V16c0-2.757-2.243-5-5-5zM27 59H12c-1.654 0-3-1.346-3-3V21h10a1 1 0 1 0 0-2H9v-3c0-1.654 1.346-3 3-3h8a1 1 0 1 0 0-2h-8c-2.757 0-5 2.243-5 5v40c0 2.757 2.243 5 5 5h15a1 1 0 1 0 0-2z" fill="#2f2f34" opacity="1" data-original="#003b49" class=""></path><path d="M52 17a1 1 0 1 0 0-2h-2a1 1 0 1 0 0 2zM45 17h1a1 1 0 1 0 0-2h-1a1 1 0 1 0 0 2zM42 50.5C42 44.71 37.514 40 32 40s-10 4.71-10 10.5c0 2.89 2.27 5.124 2.366 5.218.31.3.772.368 1.155.171l1.224-.632 4.486 5.384a1.002 1.002 0 0 0 1.197.263C32.819 60.719 42 56.313 42 50.5zm-9.74 8.25-4.491-5.391a1.002 1.002 0 0 0-1.228-.248l-1.241.641c-.521-.668-1.3-1.894-1.3-3.252 0-4.687 3.589-8.5 8-8.5s8 3.813 8 8.5c0 3.449-5.074 6.842-7.74 8.25z" fill="#2f2f34" opacity="1" data-original="#003b49" class=""></path><path d="M32 43c-3.309 0-6 2.691-6 6 0 1.705 1.318 2.966 1.469 3.104a.998.998 0 0 0 1.116.162l.391-.191 2.273 2.585a.996.996 0 0 0 1.411.091 1 1 0 0 0 .091-1.411l-2.777-3.158a1 1 0 0 0-1.19-.238l-.376.184c-.211-.314-.407-.723-.407-1.127 0-2.206 1.794-4 4-4s4 1.794 4 4c0 .823-.796 1.671-1.463 2.237a1 1 0 1 0 1.295 1.525c1.438-1.223 2.168-2.488 2.168-3.763 0-3.309-2.691-6-6-6zM16 39v7a1 1 0 1 0 2 0v-7a1 1 0 1 0-2 0zM21 41a1 1 0 0 0-1 1v2a1 1 0 1 0 2 0v-2a1 1 0 0 0-1-1zM46 39v7a1 1 0 1 0 2 0v-7a1 1 0 1 0-2 0zM43 41a1 1 0 0 0-1 1v2a1 1 0 1 0 2 0v-2a1 1 0 0 0-1-1zM27 20c0 2.757 2.243 5 5 5s5-2.243 5-5-2.243-5-5-5-5 2.243-5 5zm5-3c1.654 0 3 1.346 3 3s-1.346 3-3 3-3-1.346-3-3 1.346-3 3-3z" fill="#2f2f34" opacity="1" data-original="#003b49" class=""></path><path d="M17.293 29.293a1 1 0 0 0-.229 1.059l3 8a1 1 0 0 0 .937.648c.019 0 .038 0 .057-.002a.996.996 0 0 0 .913-.756l.9-3.598 2.685-1.611c.396.568.818 1.091 1.269 1.551l-.794 3.174a.998.998 0 0 0 .97 1.242h10a.998.998 0 0 0 .97-1.242l-.794-3.174c.451-.459.872-.983 1.269-1.551l2.685 1.611.9 3.598a.998.998 0 0 0 .913.756l.057.002c.415 0 .789-.257.937-.648l3-8a1.002 1.002 0 0 0-.229-1.059l-5.027-5.027c.208-1.377.32-2.808.32-4.266 0-9.532-4.393-17-10-17a1 1 0 1 0 0 2c4.337 0 8 6.869 8 15 0 5.363-1.556 10.288-4.079 13h-1.921a1 1 0 1 0 0 2h1.219l.5 2h-7.438l.499-2h1.219a1 1 0 1 0 0-2H28.07c-2.519-2.713-4.069-7.642-4.069-13 0-5.752 1.83-11.086 4.662-13.588a.999.999 0 1 0-1.324-1.498C24.046 7.822 22.001 13.602 22.001 20c0 1.458.111 2.889.32 4.266l-5.027 5.027zm23.919-2.667 3.626 3.626-1.646 4.39-.222-.884a.993.993 0 0 0-.455-.615l-3.037-1.822c.724-1.391 1.31-2.978 1.734-4.694zm-16.69 4.694-3.037 1.822a.992.992 0 0 0-.455.615l-.222.884-1.646-4.39 3.626-3.626c.424 1.717 1.01 3.303 1.734 4.694z" fill="#2f2f34" opacity="1" data-original="#003b49" class=""></path></g></g></svg>